<?xml version="1.0" encoding="utf-8"?>
<!-- Generator: Adobe Illustrator 15.1.0, SVG Export Plug-In . SVG Version: 6.00 Build 0)  -->
<!DOCTYPE svg PUBLIC "-//W3C//DTD SVG 1.1//EN" "http://www.w3.org/Graphics/SVG/1.1/DTD/svg11.dtd">
<svg version="1.1" id="Layer_1" xmlns="http://www.w3.org/2000/svg" xmlns:xlink="http://www.w3.org/1999/xlink" x="0px" y="0px"
	 width="130.779px" height="148.802px" viewBox="0 0 130.779 148.802" enable-background="new 0 0 130.779 148.802"
	 xml:space="preserve">
<g>
	<path d="M106.957,71.223h-7.861c-3.092,0-5.136,1.4-5.136,3.605v30.229c0,1.54,1.253,2.794,2.8,2.794
		c1.545,0,2.805-1.254,2.805-2.794V76.904c0.332-0.052,7.393-0.079,7.393-0.079c3.721,0,6.748,3.028,6.748,6.748v12.732
		c0,1.588-0.562,3.131-1.586,4.351c-0.994,1.185-0.838,2.954,0.336,3.942c1.187,0.998,2.955,0.843,3.949-0.338
		c1.869-2.223,2.903-5.053,2.903-7.955V83.573C119.307,76.764,113.766,71.223,106.957,71.223L106.957,71.223z M106.957,71.223"/>
	<path d="M106.957,59.739h-6.367c-0.339,0-0.684,0.011-1.025,0.021V48.532c0-0.363-0.016-0.732-0.049-1.098
		c4.298-3.761,6.729-9.069,6.729-14.802c0-5.919-2.654-11.503-7.283-15.306c-4.162-3.424-9.443-4.97-14.704-4.351
		c-3.632-3.309-8.298-5.191-13.153-5.316C67.222,2.836,61.385,0,55.194,0c-4.851,0-9.434,1.671-13.103,4.729
		c-4.104-1.144-8.984-1.024-10.728-0.806c-7.846,0.916-14.427,5.328-17.59,11.722C5.708,17.846,0,25.213,0,33.694
		c0,5.537,2.478,10.776,6.702,14.323c-0.01,0.173-0.021,0.338-0.021,0.515v85.994c0,7.871,6.404,14.275,14.271,14.275h64.344
		c7.867,0,14.268-6.404,14.268-14.275v-13.975c0.363-0.027,0.707-0.043,1.025-0.043c0.055,0,0.109,0,0.164-0.01l6.285-0.365
		c13.098-0.046,23.74-10.717,23.74-23.828V83.567C130.775,70.427,120.093,59.739,106.957,59.739L106.957,59.739z M125.171,96.306
		c0,10.051-8.174,18.226-18.215,18.226c-0.059,0-8.975,0.364-9.683,0.421c-0.827,0.079-1.665,0.073-2.306,0.604
		c-0.64,0.531-1.009,1.321-1.009,2.16v16.811c0,4.785-3.886,8.677-8.663,8.677H20.949c-4.778,0-8.66-3.892-8.66-8.677V49.563h12.924
		c-0.004,1.54-0.025,2.613-0.046,3.735c-0.037,2.028-0.077,4.33-0.077,9.813c0,12.591,3.782,20.114,10.125,20.114
		c3.757,0,6.3-1.723,7.762-5.26c1.29-3.092,1.863-7.935,1.863-15.708c0-1.092-0.021-2.186-0.031-3.257
		c-0.042-3.248-0.104-8.065,0.604-9.438h25.031c1.545,0,2.805-1.248,2.805-2.794c0-1.545-1.26-2.805-2.805-2.805H45.131
		c-1.396,0-2.634,0.521-3.592,1.482c-2.48,2.515-2.413,7.416-2.33,13.627c0.012,1.046,0.021,2.117,0.021,3.184
		c0,6.815-0.469,11.249-1.424,13.57c-0.637,1.519-1.234,1.793-2.592,1.793c-2.227,0-4.522-5.425-4.522-14.51
		c0-5.431,0.037-7.711,0.079-9.719c0.025-1.717,0.052-3.341,0.052-6.624c0-1.545-1.25-2.805-2.799-2.805H10.593
		c-3.141-2.498-4.995-6.273-4.995-10.265c0-6.294,4.495-11.716,10.688-12.887c0.937-0.177,1.727-0.817,2.075-1.707
		c2.098-5.224,7.581-9.011,13.991-9.655c4.797-0.515,8.617,0.79,9.34,1.081c1.041,0.417,2.232,0.177,3.028-0.613
		c2.793-2.778,6.508-4.309,10.474-4.309c4.858,0,9.427,2.415,12.216,6.458c0.551,0.796,1.477,1.259,2.444,1.202
		c4.267-0.213,8.429,1.477,11.42,4.625c0.661,0.692,1.629,1.004,2.577,0.817c4.089-0.802,8.303,0.265,11.551,2.943
		c3.334,2.738,5.242,6.743,5.242,10.978c0,4.485-2.092,8.617-5.742,11.332h-6.807c-1.539,0-2.799,1.259-2.799,2.805
		c0,1.546,1.26,2.794,2.799,2.794h5.864v11.841c0,1.926,0.546,3.985,4.61,3.985c0.848,0,8.387-0.052,8.387-0.052
		c10.047,0,18.215,8.179,18.215,18.235V96.306z M125.171,96.306"/>
</g>
</svg>
